# xmcd
#
# Track frame offsets:
#	150
#	12873
#	26604
#	42612
#	61443
#	80241
#	95584
#	115538
#	131987
#	148058
#	160531
#	178809
#	193396
# Disc length: 2753 seconds
# Revision: 1
# Processed by: cddbd v1.5.2PL0 Copyright (c) Steve Scherf et al.
#
# Submitted via: libkcddb 0.31
#
DISCID=bd0abf0d
DTITLE=The Rizdales - How The Marriage Ended!
DYEAR=2010
DGENRE=Country
TTITLE0=The Last Time You Put Me Down
TTITLE1=Who Knows You
TTITLE2=One Year Down
TTITLE3=Hard to Find a Husband
TTITLE4=It's Not Me, It's You
TTITLE5=My New Wife's Kids
TTITLE6=Don't Turn Around
TTITLE7=It's Not the Baby, Baby
TTITLE8=Little Treasure
TTITLE9=Don't Do it Girl
TTITLE10=To Have or to Hold
TTITLE11=Make No Mistake
TTITLE12=How the Marriage Ended
EXTD=
EXTT0=
EXTT1=
EXTT2=
EXTT3=
EXTT4=
EXTT5=
EXTT6=
EXTT7=
EXTT8=
EXTT9=
EXTT10=
EXTT11=
EXTT12=
PLAYORDER=
